<?xml version="1.0"?>
<svg xmlns="http://www.w3.org/2000/svg" viewBox="0 0 64 64" width="512" height="512"><path d="m39.6 16.171a27.653 27.653 0 0 0 -26.465 6.373l-10.135 9.456 8 8a29.7 29.7 0 0 0 42 0l8-8-10.132-9.456a27.639 27.639 0 0 0 -11.268-6.373zm-7.6 28.829a13 13 0 1 1 13-13 13 13 0 0 1 -13 13z" fill="#d2ebf7"/><path d="m32 19a13 13 0 1 0 13 13 13 13 0 0 0 -13-13zm0 16a3 3 0 1 1 3-3 3 3 0 0 1 -3 3z" fill="#41bdf7"/><circle cx="32" cy="32" fill="#787878" r="3"/><path d="m32 18a14 14 0 1 0 14 14 14.015 14.015 0 0 0 -14-14zm0 26a12 12 0 1 1 12-12 12.013 12.013 0 0 1 -12 12z"/><path d="m36 32a4 4 0 1 0 -4 4 4 4 0 0 0 4-4zm-6 0a2 2 0 1 1 2 2 2 2 0 0 1 -2-2z"/><path d="m51.55 21.813a28.65 28.65 0 0 0 -39.1 0l-10.132 9.456a1 1 0 0 0 -.025 1.438l8 8a30.889 30.889 0 0 0 17.365 8.683 30.759 30.759 0 0 0 8.684 0 30.889 30.889 0 0 0 17.365-8.683l8-8a1 1 0 0 0 -.025-1.438zm.743 17.48a28.7 28.7 0 0 1 -40.586 0l-7.268-7.268 9.375-8.75a26.653 26.653 0 0 1 36.372 0l9.375 8.75z"/><path d="m7 8v7h2v-6h6v-2h-7a1 1 0 0 0 -1 1z"/><path d="m9 49h-2v7a1 1 0 0 0 1 1h7v-2h-6z"/><path d="m57 15v-7a1 1 0 0 0 -1-1h-7v2h6v6z"/><path d="m55 55h-6v2h7a1 1 0 0 0 1-1v-7h-2z"/><path d="m34.011 39.745.5 1.937a9.98 9.98 0 0 0 2.072-.793l-.918-1.776a7.97 7.97 0 0 1 -1.654.632z"/><path d="m37.142 38.129 1.286 1.532a10.083 10.083 0 0 0 1.529-1.6l-1.59-1.213a8.089 8.089 0 0 1 -1.225 1.281z"/><path d="m36.3 22.969-.86 1.8a7.958 7.958 0 0 1 1.506.937l1.238-1.571a9.975 9.975 0 0 0 -1.884-1.166z"/><path d="m40 31.874 2-.033a10.039 10.039 0 0 0 -.279-2.2l-1.944.47a8.1 8.1 0 0 1 .223 1.763z"/><path d="m32 40a8.051 8.051 0 0 1 -1.515-.143l-.377 1.964a10.041 10.041 0 0 0 1.892.179h.316l-.061-2z"/><path d="m38.21 26.956a8.013 8.013 0 0 1 .96 1.491l1.791-.889a10.017 10.017 0 0 0 -1.2-1.864z"/><path d="m39.279 35.323 1.82.832a10.025 10.025 0 0 0 .691-2.108l-1.958-.407a7.977 7.977 0 0 1 -.553 1.683z"/><path d="m24.009 32.381-2 .094a9.983 9.983 0 0 0 .348 2.19l1.928-.533a7.994 7.994 0 0 1 -.276-1.751z"/><path d="m34.2 22.244a10.021 10.021 0 0 0 -2.2-.244v2a8.021 8.021 0 0 1 1.764.2z"/><path d="m26.07 40.053a10.044 10.044 0 0 0 1.919 1.11l.8-1.832a8.035 8.035 0 0 1 -1.535-.888z"/><path d="m23.184 36.724a10.094 10.094 0 0 0 1.257 1.824l1.512-1.31a8.007 8.007 0 0 1 -1.007-1.461z"/></svg>
